<!--<svg width="62" height="20" viewBox="0 0 62 20" fill="none" xmlns="http://www.w3.org/2000/svg">-->
<!--<mask id="path-1-inside-1" fill="white">-->
<!--<path fill-rule="evenodd" clip-rule="evenodd" d="M2 0C0.895508 0 0 0.895508 0 2V18C0 19.1045 0.895508 20 2 20H56C57.1045 20 58 19.1045 58 18V2C58 0.895508 57.1045 0 56 0H2ZM60 15H59V7H60C61.1045 7 62 7.89551 62 9V13C62 14.1045 61.1045 15 60 15Z"/>-->
<!--</mask>-->
<!--<path d="M59 15H57V17H59V15ZM59 7V5H57V7H59ZM2 2V-2C-0.209062 -2 -2 -0.209062 -2 2H2ZM2 18V2H-2V18H2ZM2 18H-2C-2 20.2091 -0.209062 22 2 22V18ZM56 18H2V22H56V18ZM56 18V22C58.2091 22 60 20.2091 60 18H56ZM56 2V18H60V2H56ZM56 2H60C60 -0.209062 58.2091 -2 56 -2V2ZM2 2H56V-2H2V2ZM59 17H60V13H59V17ZM57 7V15H61V7H57ZM60 5H59V9H60V5ZM64 9C64 6.79094 62.2091 5 60 5V9H64ZM64 13V9H60V13H64ZM60 17C62.2091 17 64 15.2091 64 13H60V17Z" fill="white" fill-opacity="0.4" mask="url(#path-1-inside-1)"/>-->
<!--<rect x="2" y="2" width="54" height="16" fill="#25CB55"/>-->
<!--</svg>-->

<svg width="48" height="48" viewBox="0 0 48 48" fill="none" xmlns="http://www.w3.org/2000/svg">
<mask id="path-1-inside-1" fill="white">
  <path fill-rule="evenodd" clip-rule="evenodd" d="M2 16C0.895431 16 0 16.8954 0 18V29C0 30.1046 0.895433 31 2 31H42.9032C44.0078 31 44.9032 30.1046 44.9032 29V18C44.9032 16.8954 44.0078 16 42.9032 16H2ZM46 27.25H45.6774V21.25H46C47.1046 21.25 48 22.1454 48 23.25V25.25C48 26.3546 47.1046 27.25 46 27.25Z"/>
</mask>
<path d="M45.6774 27.25H43.6774V29.25H45.6774V27.25ZM45.6774 21.25V19.25H43.6774V21.25H45.6774ZM2 18V18V14C-0.209139 14 -2 15.7909 -2 18H2ZM2 29V18H-2V29H2ZM2 29H2H-2C-2 31.2091 -0.209133 33 2 33V29ZM42.9032 29H2V33H42.9032V29ZM42.9032 29V33C45.1124 33 46.9032 31.2091 46.9032 29H42.9032ZM42.9032 18V29H46.9032V18H42.9032ZM42.9032 18H42.9032H46.9032C46.9032 15.7909 45.1124 14 42.9032 14V18ZM2 18H42.9032V14H2V18ZM45.6774 29.25H46V25.25H45.6774V29.25ZM43.6774 21.25V27.25H47.6774V21.25H43.6774ZM46 19.25H45.6774V23.25H46V19.25ZM50 23.25C50 21.0409 48.2091 19.25 46 19.25V23.25H50ZM50 25.25V23.25H46V25.25H50ZM46 29.25C48.2091 29.25 50 27.4591 50 25.25H46V29.25Z" fill="white" fill-opacity="0.4" mask="url(#path-1-inside-1)"/>
<rect x="1.5484" y="17.5" width="41.8064" height="12" fill="#25CB55"/>
</svg>

