<svg width="48" height="48" viewBox="0 0 48 48" fill="none" xmlns="http://www.w3.org/2000/svg">
<g clip-path="url(#clip0)">
<g filter="url(#filter0_d)">
<path d="M38 19C38 25.6404 27.674 39.3143 24.7583 43.0429C24.3669 43.5435 23.6331 43.5435 23.2417 43.0429C20.326 39.3143 10 25.6404 10 19V19C10 11.268 16.268 5 24 5V5C31.732 5 38 11.268 38 19Z" fill="#E50019"/>
<path d="M9.0328 18H9V19C9 20.8767 9.71749 23.1343 10.7456 25.4409C11.7853 27.7734 13.1934 30.2651 14.6794 32.6433C17.6525 37.4013 20.9875 41.7836 22.4539 43.6589C23.2458 44.6715 24.7542 44.6715 25.5461 43.6589L24.7583 43.0429L25.5461 43.6589C27.0125 41.7836 30.3475 37.4013 33.3206 32.6433C34.8066 30.2651 36.2147 27.7734 37.2544 25.4409C38.2825 23.1343 39 20.8767 39 19C39 11.0518 32.818 4.54739 25 4.0328V4H24C16.0518 4 9.54739 10.182 9.0328 18Z" stroke="white" stroke-width="2"/>
</g>
<g clip-path="url(#clip1)">
<path fill-rule="evenodd" clip-rule="evenodd" d="M24.1115 15.9904V9.29169L20.223 18.6251C19.9485 19.2838 20.4325 20.0097 21.1461 20.0097H23.8883V26.7084L27.7769 17.375C28.0513 16.7163 27.5674 15.9904 26.8538 15.9904H24.1115Z" fill="white"/>
</g>
</g>
<defs>
<filter id="filter0_d" x="4" y="1" width="40" height="50.4184" filterUnits="userSpaceOnUse" color-interpolation-filters="sRGB">
<feFlood flood-opacity="0" result="BackgroundImageFix"/>
<feColorMatrix in="SourceAlpha" type="matrix" values="0 0 0 0 0 0 0 0 0 0 0 0 0 0 0 0 0 0 127 0"/>
<feOffset dy="2"/>
<feGaussianBlur stdDeviation="2"/>
<feColorMatrix type="matrix" values="0 0 0 0 0 0 0 0 0 0 0 0 0 0 0 0 0 0 0.5 0"/>
<feBlend mode="normal" in2="BackgroundImageFix" result="effect1_dropShadow"/>
<feBlend mode="normal" in="SourceGraphic" in2="effect1_dropShadow" result="shape"/>
</filter>
<clipPath id="clip0">
<rect width="48" height="48" fill="white"/>
</clipPath>
<clipPath id="clip1">
<rect width="22" height="22" fill="white" transform="translate(13 7)"/>
</clipPath>
</defs>
</svg>
