<!--<svg width="52" height="48" viewBox="0 0 52 48" fill="none" xmlns="http://www.w3.org/2000/svg">-->
<!--<g filter="url(#filter0_d)">-->
<!--<path fill-rule="evenodd" clip-rule="evenodd" d="M11.0396 14.2771L8.64697 15.7324L15.5239 29.8044H16.4146V28.3848C16.4243 27.7036 16.6104 27.0129 16.811 26.468C16.8745 26.2969 16.9424 26.1267 17.0098 25.959L17.0317 25.9041L17.0352 25.8962L17.0469 25.8672L17.0557 25.8452C17.1523 25.6072 17.2466 25.375 17.3242 25.1538H15.5972L18.4346 19.3474L21.272 25.1538H19.4126C19.3247 25.6626 19.1284 26.1392 18.9326 26.6145L18.9175 26.6514C18.8428 26.833 18.7686 27.0149 18.7007 27.1985C18.5269 27.6672 18.4248 27.9944 18.4346 28.3833V29.8044H24.4946V28.406C24.5044 27.7249 24.6904 27.0342 24.8911 26.4893C24.9546 26.3181 25.0225 26.1479 25.0898 25.9802L25.1118 25.9253L25.1152 25.9175L25.127 25.8884L25.1357 25.8665C25.2324 25.6284 25.3267 25.3962 25.4043 25.175H23.6772L26.5146 19.3687L29.3521 25.175H27.4927C27.4048 25.6838 27.2085 26.1604 27.0127 26.6357L26.9976 26.6726C26.9229 26.8542 26.8486 27.0361 26.7808 27.2197C26.6069 27.6885 26.5049 28.0156 26.5146 28.4045V29.8044H32.0703V28.3848C32.0801 27.7036 32.2661 27.0129 32.4668 26.468C32.5371 26.2783 32.6133 26.0896 32.6875 25.9041L32.6909 25.8962L32.7026 25.8672L32.7114 25.8452C32.8081 25.6072 32.9023 25.375 32.98 25.1538H31.2529L34.0903 19.3474L36.9277 25.1538H35.0684C34.9805 25.6626 34.7842 26.1392 34.5884 26.6145L34.5732 26.6514C34.4985 26.833 34.4243 27.0149 34.3564 27.1985C34.1826 27.6672 34.0806 27.9944 34.0903 28.3833V29.8044H36.9839L43.396 15.7456L40.9819 14.2771C31.7549 8.66382 20.2666 8.66382 11.0396 14.2771ZM42.0146 12.5002L45.2144 14.447L46 14.9248L45.6133 15.7725L38.5425 31.2749L38.2705 31.8713H37.627H36.1787C36.4238 32.6038 36.6167 33.4966 36.6167 34.4556C36.6152 35.5405 36.4697 36.989 36.0645 38.3193C35.6484 39.6675 34.9243 41.0505 33.687 42L32.4751 40.3464C33.2578 39.7456 33.7969 38.8035 34.1382 37.697C34.4907 36.5728 34.5977 35.4375 34.5962 34.4556C34.5962 33.4131 34.2729 32.4551 34.0024 31.8713H28.0981C28.3433 32.6038 28.5361 33.4966 28.5361 34.4556C28.5347 35.5405 28.3892 36.989 27.9839 38.3193C27.5679 39.6675 26.8438 41.0505 25.6064 42L24.3945 40.3464C25.1772 39.7456 25.7163 38.8035 26.0576 37.697C26.4102 36.5728 26.5171 35.4375 26.5156 34.4556C26.5156 33.4131 26.1924 32.4551 25.9219 31.8713H19.5117C19.7568 32.6038 19.9497 33.4966 19.9497 34.4556C19.9482 35.5405 19.8027 36.989 19.3975 38.3193C18.9814 39.6675 18.2573 41.0505 17.02 42L15.8081 40.3464C16.5908 39.7456 17.1299 38.8035 17.4712 37.697C17.8237 36.5728 17.9307 35.4375 17.9292 34.4556C17.9292 33.4131 17.606 32.4551 17.3354 31.8713H14.8994H14.2749L13.9961 31.3L6.41992 15.7974L6 14.938L6.80713 14.447L9.83496 12.605L10.0068 12.5002C19.8701 6.5 32.1514 6.5 42.0146 12.5002Z" fill="#007BE4"/>-->
<!--</g>-->
<!--<defs>-->
<!--<filter id="filter0_d" x="-4" y="-6" width="60" height="60" filterUnits="userSpaceOnUse" color-interpolation-filters="sRGB">-->
<!--<feFlood flood-opacity="0" result="BackgroundImageFix"/>-->
<!--<feColorMatrix in="SourceAlpha" type="matrix" values="0 0 0 0 0 0 0 0 0 0 0 0 0 0 0 0 0 0 127 0"/>-->
<!--<feOffset/>-->
<!--<feGaussianBlur stdDeviation="3"/>-->
<!--<feColorMatrix type="matrix" values="0 0 0 0 0.392157 0 0 0 0 0.823529 0 0 0 0 1 0 0 0 1 0"/>-->
<!--<feBlend mode="normal" in2="BackgroundImageFix" result="effect1_dropShadow"/>-->
<!--<feBlend mode="normal" in="SourceGraphic" in2="effect1_dropShadow" result="shape"/>-->
<!--</filter>-->
<!--</defs>-->
<!--</svg>-->

<svg width="48" height="48" viewBox="0 0 48 48" fill="none" xmlns="http://www.w3.org/2000/svg">
  <g clip-path="url(#clip0)">
    <g filter="url(#filter0_d)">
      <path fill-rule="evenodd" clip-rule="evenodd" d="M8.03955 14.277L8.03954 14.277L5.64697 15.7326L12.5237 29.8045H13.4144V28.3849C13.4243 27.7037 13.6103 27.013 13.8109 26.468C13.8885 26.2585 13.973 26.0502 14.0556 25.8462L14.0556 25.846C14.1522 25.6077 14.2464 25.3753 14.3244 25.1538H12.5972L15.4346 19.3475L18.2721 25.1538H16.4125C16.3246 25.6625 16.1286 26.1385 15.9332 26.6135C15.8531 26.808 15.7731 27.0024 15.7006 27.1987C15.5268 27.6672 15.4247 27.9944 15.4346 28.3835L15.4346 29.8045H21.4945V28.4061C21.5044 27.7249 21.6904 27.0341 21.891 26.4892C21.9686 26.2797 22.053 26.0714 22.1357 25.8674C22.2323 25.629 22.3264 25.3966 22.4045 25.175H20.6772L23.5147 19.3687L26.3522 25.175H24.4926C24.4047 25.6837 24.2087 26.1597 24.0132 26.6347C23.9332 26.8292 23.8532 27.0236 23.7807 27.2199C23.6069 27.6884 23.5048 28.0156 23.5147 28.4047L23.5147 29.8045H29.0701V28.3849C29.0801 27.7037 29.2661 27.013 29.4667 26.468C29.5443 26.2585 29.6287 26.0502 29.7114 25.8462C29.8079 25.6078 29.9021 25.3754 29.9802 25.1538H28.2529L31.0904 19.3475L33.9278 25.1538H32.0683C31.9804 25.6625 31.7844 26.1385 31.5889 26.6135C31.5089 26.808 31.4289 27.0024 31.3564 27.1987C31.1826 27.6672 31.0804 27.9944 31.0904 28.3835L31.0904 29.8045H33.9839L40.3962 15.7457L37.982 14.277L38.4982 13.3887L39.0145 12.5004L42.2143 14.447L42.9999 14.925L42.6134 15.7724L35.5425 31.2751L35.2705 31.8715H34.6272H33.1786C33.4237 32.6038 33.6166 33.4966 33.6166 34.4556C33.6154 35.5406 33.4696 36.9891 33.0647 38.3195C32.6486 39.6676 31.9245 41.0508 30.6872 42.0002L29.4751 40.3466C30.2581 39.7458 30.7967 38.8036 31.1382 37.6971C31.4908 36.5728 31.5976 35.4376 31.5964 34.4556C31.5964 33.4132 31.2729 32.4552 31.0024 31.8715H25.098C25.3431 32.6038 25.536 33.4966 25.536 34.4556C25.5348 35.5406 25.3891 36.9891 24.9841 38.3195C24.568 39.6676 23.844 41.0508 22.6067 42.0002L21.3945 40.3466C22.1775 39.7458 22.7161 38.8036 23.0576 37.6971C23.4102 36.5728 23.517 35.4376 23.5158 34.4556C23.5158 33.4132 23.1923 32.4552 22.9218 31.8715H16.5116C16.7567 32.6038 16.9496 33.4966 16.9496 34.4556C16.9484 35.5406 16.8027 36.9891 16.3977 38.3195C15.9816 39.6676 15.2575 41.0508 14.0203 42.0002L12.8081 40.3466C13.5911 39.7458 14.1297 38.8036 14.4712 37.6971C14.8238 36.5728 14.9306 35.4376 14.9294 34.4556C14.9294 33.4132 14.6059 32.4552 14.3354 31.8715H11.8994H11.2751L10.9959 31.3002L3.42 15.7975L3 14.9381L3.80723 14.447L6.83517 12.6049L7.00704 12.5004C16.8703 6.49996 29.1513 6.49996 39.0145 12.5004L38.4982 13.3887L37.982 14.277C28.7551 8.66376 17.2664 8.66376 8.03955 14.277Z" fill="#007BE4"/>
    </g>
  </g>
  <defs>
    <filter id="filter0_d" x="-7" y="-6" width="60" height="60" filterUnits="userSpaceOnUse" color-interpolation-filters="sRGB">
      <feFlood flood-opacity="0" result="BackgroundImageFix"/>
      <feColorMatrix in="SourceAlpha" type="matrix" values="0 0 0 0 0 0 0 0 0 0 0 0 0 0 0 0 0 0 127 0"/>
      <feOffset/>
      <feGaussianBlur stdDeviation="3"/>
      <feColorMatrix type="matrix" values="0 0 0 0 0.392157 0 0 0 0 0.823529 0 0 0 0 1 0 0 0 1 0"/>
      <feBlend mode="normal" in2="BackgroundImageFix" result="effect1_dropShadow"/>
      <feBlend mode="normal" in="SourceGraphic" in2="effect1_dropShadow" result="shape"/>
    </filter>
    <clipPath id="clip0">
      <rect width="48" height="48" fill="white"/>
    </clipPath>
  </defs>
</svg>
