<svg width="40" height="40" viewBox="0 0 40 40" fill="none" xmlns="http://www.w3.org/2000/svg">
<path fill-rule="evenodd" clip-rule="evenodd" d="M17 3C17 1.34326 18.3431 0 20 0C21.6569 0 23 1.34326 23 3V5.30029C24.9152 5.68896 26.6978 6.44238 28.2722 7.48535L29.8995 5.85791C31.071 4.68652 32.9706 4.68652 34.1422 5.85791C35.3137 7.0293 35.3137 8.9292 34.1422 10.1006L32.5149 11.728C33.5576 13.3022 34.3112 15.085 34.7 17H37C38.6569 17 40 18.3433 40 20C40 21.6567 38.6569 23 37 23H34.7C34.3112 24.915 33.5575 26.6982 32.5146 28.2725L34.1421 29.8999C35.3137 31.0713 35.3137 32.9707 34.1421 34.1421C32.9705 35.314 31.071 35.314 29.8995 34.1421L28.272 32.5146C26.6976 33.5571 24.915 34.311 23 34.6997V37C23 38.6567 21.6569 40 20 40C18.3431 40 17 38.6567 17 37V34.6997C15.085 34.311 13.3024 33.5576 11.7281 32.5151L10.1005 34.1426C8.92896 35.314 7.02942 35.314 5.85785 34.1426C4.68628 32.9707 4.68628 31.0713 5.85785 29.8999L7.48529 28.2725C6.44244 26.6982 5.68884 24.915 5.30005 23H3C1.34314 23 0 21.6567 0 20C0 18.3433 1.34314 17 3 17H5.30005C5.68878 15.085 6.44244 13.3018 7.48523 11.7275L5.85785 10.1006C4.68628 8.92871 4.68628 7.0293 5.85785 5.85791C7.02942 4.68652 8.92889 4.68652 10.1005 5.85791L11.7278 7.48535C13.3022 6.44238 15.0848 5.68896 17 5.30029V3ZM20 27C23.866 27 27 23.8662 27 20C27 16.1338 23.866 13 20 13C16.134 13 13 16.1338 13 20C13 23.8662 16.134 27 20 27Z" fill="white" fill-opacity="0.4"/>
</svg>
