<svg width="48" height="48" viewBox="0 0 48 48" fill="none" xmlns="http://www.w3.org/2000/svg">
<path d="M28 9L28.1425 7.00508L28.0713 7H28V9ZM28 37V39H28.0713L28.1425 38.9949L28 37ZM17.6094 15.6641C18.5285 15.0514 18.7768 13.8097 18.1641 12.8906C17.5514 11.9715 16.3097 11.7232 15.3906 12.3359L17.6094 15.6641ZM4.8906 19.3359C3.97154 19.9486 3.72319 21.1903 4.3359 22.1094C4.9486 23.0285 6.19034 23.2768 7.1094 22.6641L4.8906 19.3359ZM17.6094 21.6641C18.5285 21.0514 18.7768 19.8097 18.1641 18.8906C17.5514 17.9715 16.3097 17.7232 15.3906 18.3359L17.6094 21.6641ZM4.8906 25.3359C3.97154 25.9486 3.72319 27.1903 4.3359 28.1094C4.9486 29.0285 6.19034 29.2768 7.1094 28.6641L4.8906 25.3359ZM17.6094 27.6641C18.5285 27.0514 18.7768 25.8097 18.1641 24.8906C17.5514 23.9715 16.3097 23.7232 15.3906 24.3359L17.6094 27.6641ZM4.8906 31.3359C3.97154 31.9486 3.72319 33.1903 4.3359 34.1094C4.9486 35.0285 6.19034 35.2768 7.1094 34.6641L4.8906 31.3359ZM17.6094 33.6641C18.5285 33.0514 18.7768 31.8097 18.1641 30.8906C17.5514 29.9715 16.3097 29.7232 15.3906 30.3359L17.6094 33.6641ZM4.8906 37.3359C3.97154 37.9486 3.72319 39.1903 4.3359 40.1094C4.9486 41.0285 6.19034 41.2768 7.1094 40.6641L4.8906 37.3359ZM27.8575 10.9949C29.7981 11.1335 32.9195 12.1149 35.5213 14.1406C38.0645 16.1207 40 18.9974 40 23H44C44 17.5026 41.2688 13.546 37.9787 10.9844C34.7471 8.46843 30.8685 7.1998 28.1425 7.00508L27.8575 10.9949ZM28 7C25.9134 7 23.8346 7.53227 22.5009 9.62518C21.3504 11.4304 21 14.0831 21 17.5H25C25 14.1169 25.3996 12.5196 25.8741 11.7748C26.1654 11.3177 26.5866 11 28 11V7ZM28.1425 38.9949C30.8685 38.8002 34.7471 37.5316 37.9787 35.0156C41.2688 32.454 44 28.4974 44 23H40C40 27.0026 38.0645 29.8793 35.5213 31.8594C32.9195 33.8851 29.7981 34.8665 27.8575 35.0051L28.1425 38.9949ZM28 35C26.5866 35 26.1654 34.6823 25.8741 34.2252C25.3996 33.4804 25 31.8831 25 28.5H21C21 31.9169 21.3504 34.5696 22.5009 36.3748C23.8346 38.4677 25.9134 39 28 39V35ZM25 28.5V17.5H21V28.5H25ZM15.3906 12.3359L4.8906 19.3359L7.1094 22.6641L17.6094 15.6641L15.3906 12.3359ZM15.3906 18.3359L4.8906 25.3359L7.1094 28.6641L17.6094 21.6641L15.3906 18.3359ZM15.3906 24.3359L4.8906 31.3359L7.1094 34.6641L17.6094 27.6641L15.3906 24.3359ZM15.3906 30.3359L4.8906 37.3359L7.1094 40.6641L17.6094 33.6641L15.3906 30.3359Z" fill="#25CB55"/>
</svg>
