<svg width="48" height="48" viewBox="0 0 48 48" fill="none" xmlns="http://www.w3.org/2000/svg">
<path d="M26.6667 14L26.7735 12.5038L26.7202 12.5H26.6667V14ZM26.6667 32.6667V34.1667H26.7202L26.7735 34.1629L26.6667 32.6667ZM19.8321 18.5814C20.5213 18.1219 20.7076 17.1906 20.2481 16.5013C19.7885 15.812 18.8572 15.6257 18.1679 16.0853L19.8321 18.5814ZM11.1679 20.7519C10.4787 21.2115 10.2924 22.1428 10.7519 22.8321C11.2115 23.5213 12.1428 23.7076 12.8321 23.2481L11.1679 20.7519ZM19.8321 24.5814C20.5213 24.1219 20.7076 23.1906 20.2481 22.5013C19.7885 21.812 18.8572 21.6257 18.1679 22.0853L19.8321 24.5814ZM11.1679 26.7519C10.4787 27.2115 10.2924 28.1428 10.7519 28.8321C11.2115 29.5213 12.1428 29.7076 12.8321 29.2481L11.1679 26.7519ZM19.8321 30.5814C20.5213 30.1219 20.7076 29.1906 20.2481 28.5013C19.7885 27.812 18.8572 27.6257 18.1679 28.0853L19.8321 30.5814ZM11.1679 32.7519C10.4787 33.2115 10.2924 34.1428 10.7519 34.8321C11.2115 35.5213 12.1428 35.7076 12.8321 35.2481L11.1679 32.7519ZM26.5598 15.4962C27.8208 15.5863 29.8702 16.2285 31.5785 17.5586C33.2429 18.8544 34.5 20.7272 34.5 23.3333H37.5C37.5 19.6061 35.646 16.9234 33.4215 15.1914C31.2409 13.4937 28.6236 12.636 26.7735 12.5038L26.5598 15.4962ZM26.6667 12.5C25.2476 12.5 23.7926 12.8638 22.86 14.3272C22.0649 15.5749 21.8333 17.3873 21.8333 19.6667H24.8333C24.8333 17.4127 25.1017 16.3918 25.39 15.9394C25.5407 15.7029 25.7524 15.5 26.6667 15.5V12.5ZM26.7735 34.1629C28.6236 34.0307 31.2409 33.173 33.4215 31.4752C35.646 29.7433 37.5 27.0606 37.5 23.3333H34.5C34.5 25.9394 33.2429 27.8123 31.5785 29.1081C29.8702 30.4381 27.8208 31.0804 26.5598 31.1705L26.7735 34.1629ZM26.6667 31.1667C25.7524 31.1667 25.5407 30.9638 25.39 30.7272C25.1017 30.2749 24.8333 29.254 24.8333 27H21.8333C21.8333 29.2793 22.0649 31.0918 22.86 32.3394C23.7926 33.8029 25.2476 34.1667 26.6667 34.1667V31.1667ZM24.8333 27V19.6667H21.8333V27H24.8333ZM18.1679 16.0853L11.1679 20.7519L12.8321 23.2481L19.8321 18.5814L18.1679 16.0853ZM18.1679 22.0853L11.1679 26.7519L12.8321 29.2481L19.8321 24.5814L18.1679 22.0853ZM18.1679 28.0853L11.1679 32.7519L12.8321 35.2481L19.8321 30.5814L18.1679 28.0853Z" fill="white"/>
</svg>
