<svg width="240" height="240" viewBox="0 0 240 240" fill="none" xmlns="http://www.w3.org/2000/svg">
<path fill-rule="evenodd" clip-rule="evenodd" d="M233.275 37.4246C193.253 19.906 154.157 14.3372 120 14.5996H119.995C85.8374 14.3372 46.7349 19.906 6.71973 37.4246C1.95166 28.7456 0 23.4817 0 23.4817C43.7451 6.09937 84.7153 0.14917 119.995 0C155.277 0.14917 196.25 6.09839 240 23.4817C240 23.4817 238.625 27.7551 233.275 37.4246ZM153.589 50.3599L120.013 240L86.167 50.3323C54.3779 50.355 44.2959 53.8794 42.8296 68.2661C42.8296 68.2661 21.3525 60.2268 10.5337 43.8994C52.7822 24.2356 95.2393 23.3479 95.2393 23.3479L119.987 53.6201L144.731 23.3525C144.731 23.3525 187.187 24.2395 229.441 43.9031C218.613 60.2307 197.145 68.2698 197.145 68.2698C195.687 53.8843 185.592 50.3599 153.589 50.3599Z" fill="white"/>
</svg>
